<svg xmlns="http://www.w3.org/2000/svg" viewBox="0 0 208.05 72.89"><defs><style>.cls-1{fill:#fff;}</style></defs><title>logo</title><g id="レイヤー_2" data-name="レイヤー 2"><g id="レイヤー_1-2" data-name="レイヤー 1"><path class="cls-1" d="M32.11,1V9H9.44v9.2h20.8v7.34H9.44V36H32.59V44H0V1Z"/><path class="cls-1" d="M70.76,40.68q-4.87,4.24-13.47,4.24T43.8,40.71Q39,36.5,39,27.72V1h9.44v26.7a19.38,19.38,0,0,0,.3,3.43,6.67,6.67,0,0,0,3.94,5.08,10.87,10.87,0,0,0,4.6.81q5.05,0,7-2.25t1.92-7.06V1h9.44v26.7Q75.63,36.44,70.76,40.68Z"/><path class="cls-1" d="M103.62,1a17.89,17.89,0,0,1,6.85,1.17,12.84,12.84,0,0,1,4.6,3.1,11.91,11.91,0,0,1,2.58,4.39,16.4,16.4,0,0,1,0,10.19,11.86,11.86,0,0,1-2.58,4.42,12.82,12.82,0,0,1-4.6,3.1,17.89,17.89,0,0,1-6.85,1.17H93.7V44H84.26V1ZM101,21.22a19.75,19.75,0,0,0,3.13-.24,7.26,7.26,0,0,0,2.65-.93,5.09,5.09,0,0,0,1.83-2,6.88,6.88,0,0,0,.69-3.31,6.88,6.88,0,0,0-.69-3.31,5.09,5.09,0,0,0-1.83-2,7.3,7.3,0,0,0-2.65-.93A19.86,19.86,0,0,0,101,8.36H93.7V21.22Z"/><path class="cls-1" d="M133.44,1V17.5h17.38V1h9.44V44h-9.44V25.43H133.44V44H124V1Z"/><path class="cls-1" d="M167.29,13.74a21.46,21.46,0,0,1,4.15-7.19,19,19,0,0,1,6.64-4.81,23.5,23.5,0,0,1,17.77,0,19.06,19.06,0,0,1,6.61,4.81,21.46,21.46,0,0,1,4.15,7.19,26.83,26.83,0,0,1,1.44,8.93,25.93,25.93,0,0,1-1.44,8.75,20.89,20.89,0,0,1-4.15,7.06,19.07,19.07,0,0,1-6.61,4.72,23.89,23.89,0,0,1-17.77,0,19,19,0,0,1-6.64-4.72,20.89,20.89,0,0,1-4.15-7.06,25.93,25.93,0,0,1-1.44-8.75A26.83,26.83,0,0,1,167.29,13.74Zm8.63,14.19a14.19,14.19,0,0,0,2,4.6,10.32,10.32,0,0,0,3.61,3.28,12.5,12.5,0,0,0,10.82,0A10.33,10.33,0,0,0,196,32.53a14.21,14.21,0,0,0,2-4.6,21.85,21.85,0,0,0,.63-5.26A23.5,23.5,0,0,0,198,17.2a14.5,14.5,0,0,0-2-4.72,10.23,10.23,0,0,0-3.61-3.31,12.5,12.5,0,0,0-10.82,0,10.22,10.22,0,0,0-3.61,3.31,14.47,14.47,0,0,0-2,4.72,23.5,23.5,0,0,0-.63,5.47A21.85,21.85,0,0,0,175.92,27.93Z"/><path class="cls-1" d="M5.72,55.59l4,11.64h0l3.74-11.64h5.24V72.51H15.23v-12h0L11,72.51H8.17L4,60.64H4V72.51H.49V55.59Z"/><path class="cls-1" d="M36.53,55.59v3.13H27.6v3.63h8.2v2.89H27.6v4.15h9.12v3.13H23.88V55.59Z"/><path class="cls-1" d="M46.37,55.59l4,11.64h0l3.74-11.64h5.24V72.51H55.87v-12h0l-4.15,12H48.81L44.66,60.64h0V72.51H41.13V55.59Z"/><path class="cls-1" d="M64.36,60.6A8.46,8.46,0,0,1,66,57.77a7.47,7.47,0,0,1,2.62-1.9,9.26,9.26,0,0,1,7,0,7.51,7.51,0,0,1,2.61,1.9,8.44,8.44,0,0,1,1.64,2.83,10.58,10.58,0,0,1,.57,3.52,10.23,10.23,0,0,1-.57,3.45,8.21,8.21,0,0,1-1.64,2.78,7.51,7.51,0,0,1-2.61,1.86,9.41,9.41,0,0,1-7,0A7.48,7.48,0,0,1,66,70.36a8.23,8.23,0,0,1-1.63-2.78,10.2,10.2,0,0,1-.57-3.45A10.55,10.55,0,0,1,64.36,60.6Zm3.4,5.59A5.6,5.6,0,0,0,68.55,68,4.05,4.05,0,0,0,70,69.3a4.92,4.92,0,0,0,4.27,0A4.07,4.07,0,0,0,75.66,68a5.6,5.6,0,0,0,.79-1.81,8.61,8.61,0,0,0,.25-2.07A9.26,9.26,0,0,0,76.45,62a5.72,5.72,0,0,0-.79-1.86,4,4,0,0,0-1.42-1.3,4.92,4.92,0,0,0-4.27,0,4,4,0,0,0-1.42,1.3A5.72,5.72,0,0,0,67.76,62a9.26,9.26,0,0,0-.25,2.16A8.61,8.61,0,0,0,67.76,66.2Z"/></g></g></svg>